<svg width="20" height="20" viewBox="0 0 20 20" fill="none" xmlns="http://www.w3.org/2000/svg">
    <path d="M4.87536 2.91683C5.10556 2.65962 5.08367 2.2645 4.82647 2.0343C4.56927 1.80409 4.17414 1.82598 3.94394 2.08318C2.94315 3.20136 2.24677 4.59957 1.98723 6.1466C1.93012 6.48702 2.15978 6.80928 2.5002 6.86639C2.84062 6.9235 3.16289 6.69384 3.22 6.35342C3.43926 5.04651 4.02757 3.86405 4.87536 2.91683Z" fill="#FFFBEB" />
    <path d="M16.0559 2.08318C15.8257 1.82598 15.4306 1.80409 15.1734 2.0343C14.9162 2.2645 14.8943 2.65962 15.1245 2.91683C15.9723 3.86405 16.5606 5.04651 16.7798 6.35342C16.8369 6.69384 17.1592 6.9235 17.4996 6.86639C17.84 6.80928 18.0697 6.48702 18.0126 6.1466C17.7531 4.59957 17.0567 3.20136 16.0559 2.08318Z" fill="#FFFBEB" />
    <path fill-rule="evenodd" clip-rule="evenodd" d="M10.0001 1.875C6.89352 1.875 4.37516 4.39331 4.37507 7.49984L4.37491 8.125C4.37491 9.89427 3.70739 11.5062 2.60945 12.7249C2.4707 12.8789 2.41734 13.0917 2.467 13.293C2.51666 13.4942 2.66288 13.6578 2.85735 13.7296C4.14412 14.2046 5.49117 14.5549 6.88373 14.766C6.87799 14.8433 6.87507 14.9214 6.87507 15C6.87507 16.7259 8.27418 18.125 10.0001 18.125C11.726 18.125 13.1251 16.7259 13.1251 15C13.1251 14.9213 13.1222 14.8433 13.1164 14.766C14.5088 14.5549 15.8558 14.2045 17.1425 13.7296C17.3369 13.6578 17.4831 13.4942 17.5328 13.293C17.5825 13.0917 17.5291 12.8789 17.3904 12.7249C16.2924 11.5062 15.6249 9.89427 15.6249 8.125V7.54099L15.6251 7.5C15.6251 4.3934 13.1067 1.875 10.0001 1.875ZM8.12507 15C8.12507 14.9718 8.12569 14.9439 8.12691 14.9161C8.74395 14.9716 9.36869 15 9.99991 15C10.6312 15 11.2561 14.9716 11.8732 14.916C11.8745 14.9438 11.8751 14.9718 11.8751 15C11.8751 16.0355 11.0356 16.875 10.0001 16.875C8.96454 16.875 8.12507 16.0355 8.12507 15Z" fill="#FFFBEB" />
</svg>