<svg width="75" height="75" viewBox="0 0 75 75" fill="none" xmlns="http://www.w3.org/2000/svg">
<g clip-path="url(#clip0_1005_2694)">
<path fill-rule="evenodd" clip-rule="evenodd" d="M37.3187 73.3914L36.0154 72.5921L27.9768 67.6622L26.8055 66.9438L26.8055 65.5698L26.8055 37.9772L31.7146 37.9772L31.7146 64.1957L37.2785 67.608L42.6372 64.2181L42.6372 37.9772L47.5462 37.9772L47.5462 65.5698L47.5462 66.9215L46.4039 67.6441L38.6108 72.574L37.3187 73.3914ZM23.6146 65.6644L19.8832 63.3914L7.48785 55.8409L6.31023 55.1235L6.31023 53.7446L6.31023 37.9772L11.2193 37.9772L11.2193 52.3657L18.7056 56.926L18.7056 37.9772L23.6146 37.9772L23.6146 61.2952L23.6146 65.6644ZM50.7371 65.6525L50.7371 61.2952L50.7371 38.1L55.6462 38.1L55.6462 56.9379L63.1324 52.4017L63.1324 38.1L68.0415 38.1L68.0415 53.7844L68.0415 55.167L66.859 55.8836L54.4636 63.3944L50.7371 65.6525ZM68.0319 19.6497L68.0118 35.2805L63.1027 35.2742L63.121 21.0314L55.5792 16.4823L55.5551 35.2577L50.6461 35.2514L50.6757 12.1355L50.6813 7.79496L54.398 10.0368L66.8451 17.5447L68.0337 18.2617L68.0319 19.6497ZM42.5796 9.18209L42.5461 35.2364L47.4552 35.2427L47.4904 7.81079L47.4922 6.43318L46.3172 5.71406L38.2849 0.79822L36.9884 0.0047482L35.7004 0.811824L27.901 5.69877L26.7515 6.41904L26.7497 7.77558L26.7145 35.2075L31.6236 35.2138L31.657 9.13843L37.0188 5.77883L42.5796 9.18209ZM18.7001 16.4063L18.676 35.1197L23.5851 35.126L23.6147 12.0832L23.6202 7.7538L19.9024 9.97227L7.43614 17.411L6.24114 18.1241L6.23935 19.5157L6.21935 35.097L11.1284 35.1033L11.1466 20.9135L18.7001 16.4063Z" fill="#3CD9A3"/>
</g>
<g clip-path="url(#clip1_1005_2694)">
<path fill-rule="evenodd" clip-rule="evenodd" d="M35.2464 74.5667L33.9431 73.7673L25.9045 68.8375L24.7332 68.1191L24.7332 66.7451L24.7332 39.1525L29.6423 39.1525L29.6423 65.371L35.2062 68.7833L40.5649 65.3934L40.5649 39.1525L45.474 39.1525L45.474 66.7451L45.474 68.0968L44.3316 68.8194L36.5385 73.7493L35.2464 74.5667ZM21.5424 66.8397L17.8109 64.5667L5.41558 57.0162L4.23796 56.2988L4.23796 54.9199L4.23795 41.4983L4.16709 20.7025L4.16232 19.3033L5.36386 18.5863L17.8301 11.1476L21.548 8.9291L21.5424 13.2585L21.5128 36.3013L16.6038 36.295L16.6278 17.5816L9.0809 22.0849L9.13906 39.1525L9.14703 39.1525L9.14703 53.541L16.6333 58.1013L16.6333 39.1525L21.5424 39.1525L21.5424 62.4705L21.5424 66.8397ZM48.6648 66.8278L48.6648 62.4705L48.6648 39.2753L53.5739 39.2753L53.5739 58.1132L61.0602 53.577L61.0602 39.2753L65.9692 39.2753L65.9692 54.9597L65.9692 56.3423L64.7867 57.0589L52.3914 64.5697L48.6648 66.8278ZM65.9596 20.825L65.9395 36.4558L61.0305 36.4495L61.0488 22.2067L53.507 17.6576L53.4829 36.433L48.5738 36.4267L48.6035 13.3108L48.609 8.97025L52.3258 11.2121L64.7729 18.72L65.9614 19.437L65.9596 20.825ZM40.5073 10.3574L40.4739 36.4117L45.3829 36.418L45.4182 8.98607L45.4199 7.60847L44.2449 6.88935L36.2127 1.97351L34.9162 1.18004L33.6281 1.98712L25.8287 6.87406L24.6792 7.59433L24.6774 8.95087L24.6422 36.3828L29.5513 36.3891L29.5848 10.3137L34.9466 6.95412L40.5073 10.3574Z" fill="#3CD9A3"/>
</g>
<g clip-path="url(#clip2_1005_2694)">
<path d="M67.6572 39.1259L67.6572 54.8103L55.2619 62.3212L55.2619 39.1259M10.835 39.0032L10.835 54.7706L23.2304 62.3212L23.2304 39.0032M47.162 39.0032L47.162 66.5958L39.3689 71.5256L31.3303 66.5958L31.3303 39.0032M10.7441 36.1261L10.7641 20.5448L23.2304 13.106L23.2008 36.1489M67.6275 36.3033L67.6476 20.6725L55.2005 13.1646L55.1708 36.2806M31.2393 36.2366L31.2745 8.80471L39.0739 3.91777L47.1062 8.83361L47.0709 36.2655" stroke="#3CD9A3" stroke-width="4.90907"/>
</g>
<g clip-path="url(#clip3_1005_2694)">
<path fill-rule="evenodd" clip-rule="evenodd" d="M37.3187 1.25708L36.0154 2.05638L27.9768 6.98625L26.8055 7.7046L26.8055 9.07864L26.8055 36.6712L31.7146 36.6712L31.7146 10.4527L37.2785 7.04047L42.6372 10.4303L42.6372 36.6712L47.5462 36.6712L47.5462 9.07865L47.5462 7.72694L46.4039 7.00431L38.6108 2.07444L37.3187 1.25708ZM23.6146 8.98399L19.8832 11.257L7.48785 18.8076L6.31023 19.5249L6.31023 20.9038L6.31023 36.6712L11.2193 36.6712L11.2193 22.2827L18.7056 17.7225L18.7056 36.6712L23.6146 36.6712L23.6146 13.3532L23.6146 8.98399ZM50.7371 8.99595L50.7371 13.3532L50.7371 36.5485L55.6462 36.5485L55.6462 17.7105L63.1324 22.2468L63.1324 36.5485L68.0415 36.5485L68.0415 20.8641L68.0415 19.4814L66.859 18.7649L54.4636 11.254L50.7371 8.99595ZM68.0319 54.9988L68.0118 39.368L63.1027 39.3743L63.121 53.617L55.5792 58.1661L55.5551 39.3907L50.6461 39.397L50.6757 62.513L50.6813 66.8535L54.398 64.6116L66.8451 57.1037L68.0337 56.3868L68.0319 54.9988ZM42.5796 65.4664L42.5461 39.412L47.4552 39.4057L47.4904 66.8377L47.4922 68.2153L46.3172 68.9344L38.2849 73.8502L36.9884 74.6437L35.7004 73.8366L27.901 68.9497L26.7515 68.2294L26.7497 66.8729L26.7145 39.4409L31.6236 39.4346L31.657 65.51L37.0188 68.8696L42.5796 65.4664ZM18.7001 58.2421L18.676 39.5287L23.5851 39.5224L23.6147 62.5652L23.6202 66.8946L19.9024 64.6762L7.43614 57.2374L6.24114 56.5243L6.23935 55.1328L6.21935 39.5514L11.1284 39.5451L11.1466 53.7349L18.7001 58.2421Z" fill="#2FAA82"/>
</g>
<g clip-path="url(#clip4_1005_2694)">
<path fill-rule="evenodd" clip-rule="evenodd" d="M35.2464 0.0707981L33.9431 0.870105L25.9045 5.79997L24.7332 6.51832L24.7332 7.89237L24.7332 35.4849L29.6423 35.4849L29.6423 9.26641L35.2062 5.8542L40.5649 9.24407L40.5649 35.4849L45.474 35.4849L45.474 7.89237L45.474 6.54066L44.3316 5.81804L36.5385 0.888165L35.2464 0.0707981ZM21.5424 7.79771L17.8109 10.0707L5.41558 17.6213L4.23796 18.3386L4.23796 19.7175L4.23795 33.1391L4.16709 53.935L4.16232 55.3342L5.36386 56.0511L17.8301 63.4899L21.548 65.7084L21.5424 61.3789L21.5128 38.3361L16.6038 38.3424L16.6278 57.0558L9.0809 52.5525L9.13906 35.4849L9.14703 35.4849L9.14703 21.0964L16.6333 16.5362L16.6333 35.4849L21.5424 35.4849L21.5424 12.167L21.5424 7.79771ZM48.6648 7.80967L48.6648 12.167L48.6648 35.3622L53.5739 35.3622L53.5739 16.5242L61.0602 21.0605L61.0602 35.3622L65.9692 35.3622L65.9692 19.6778L65.9692 18.2951L64.7867 17.5786L52.3914 10.0677L48.6648 7.80967ZM65.9596 53.8125L65.9395 38.1817L61.0305 38.188L61.0488 52.4308L53.507 56.9799L53.4829 38.2044L48.5738 38.2107L48.6035 61.3267L48.609 65.6672L52.3258 63.4253L64.7729 55.9174L65.9614 55.2005L65.9596 53.8125ZM40.5073 64.2801L40.4739 38.2258L45.3829 38.2195L45.4182 65.6514L45.4199 67.029L44.2449 67.7481L36.2127 72.6639L34.9162 73.4574L33.6281 72.6503L25.8287 67.7634L24.6792 67.0431L24.6774 65.6866L24.6422 38.2547L29.5513 38.2484L29.5848 64.3237L34.9466 67.6833L40.5073 64.2801Z" fill="#2FAA82"/>
</g>
<g clip-path="url(#clip5_1005_2694)">
<path d="M67.6572 35.5149L67.6572 19.8305L55.2619 12.3197L55.2619 35.5149M10.835 35.6377L10.835 19.8703L23.2304 12.3197L23.2304 35.6377M47.162 35.6377L47.162 8.0451L39.3689 3.11523L31.3303 8.0451L31.3303 35.6377M10.7441 38.5148L10.7641 54.0961L23.2304 61.5348L23.2008 38.492M67.6275 38.3376L67.6476 53.9684L55.2005 61.4763L55.1708 38.3603M31.2393 38.4042L31.2745 65.8362L39.0739 70.7231L47.1062 65.8073L47.0709 38.3754" stroke="#2FAA82" stroke-width="4.90907"/>
</g>
<defs>
<clipPath id="clip0_1005_2694">
<rect x="25.0811" width="24.486" height="35.2359" fill="white"/>
</clipPath>
<clipPath id="clip1_1005_2694">
<rect y="1.78882" width="23.8887" height="33.4442" fill="white"/>
</clipPath>
<clipPath id="clip2_1005_2694">
<rect x="49.5596" y="1.1958" width="25.0832" height="34.0414" fill="white"/>
</clipPath>
<clipPath id="clip3_1005_2694">
<rect width="24.486" height="35.2359" transform="matrix(1 0 0 -1 25.0811 74.6487)" fill="white"/>
</clipPath>
<clipPath id="clip4_1005_2694">
<rect width="23.8887" height="33.4442" transform="matrix(1 0 0 -1 0 72.8599)" fill="white"/>
</clipPath>
<clipPath id="clip5_1005_2694">
<rect width="25.0832" height="34.0414" transform="matrix(1 0 0 -1 49.5596 73.4529)" fill="white"/>
</clipPath>
</defs>
</svg>
