<svg width="48" height="48" viewBox="0 0 48 48" fill="none" xmlns="http://www.w3.org/2000/svg">
<g clip-path="url(#clip0_1005_1522)">
<rect width="48" height="48" rx="24" fill="#49836E"/>
<g opacity="0.75">
<path d="M24.307 37.4742L30.932 17.9911L17.5223 18.0605L24.307 37.4742Z" fill="white"/>
<path d="M24.1666 8.30128L17.5219 18.0601L30.9316 17.9907L24.186 8.30118L24.1666 8.30128Z" fill="white"/>
</g>
<g opacity="0.75">
<path d="M26.9815 37.1555L38.8125 29.7426L31.7275 24.0353L26.9815 37.1555Z" fill="white"/>
<path d="M39.4035 21.7467L31.7275 24.0349L38.8124 29.7423L39.4138 21.755L39.4035 21.7467Z" fill="white"/>
</g>
<g opacity="0.75">
<path d="M21.2757 37.2991L16.7418 24.0942L9.5752 29.6987L21.2757 37.2991Z" fill="white"/>
<path d="M9.08894 21.7037L9.57502 29.6988L16.7416 24.0943L9.09932 21.6955L9.08894 21.7037Z" fill="white"/>
</g>
</g>
<defs>
<clipPath id="clip0_1005_1522">
<rect width="48" height="48" rx="24" fill="white"/>
</clipPath>
</defs>
</svg>
