<svg width="48" height="48" viewBox="0 0 48 48" fill="none" xmlns="http://www.w3.org/2000/svg">
<g clip-path="url(#clip0_1005_1560)">
<circle cx="34.8393" cy="34.8396" r="34.8393" fill="url(#paint0_linear_1005_1560)" fill-opacity="0.4"/>
<g clip-path="url(#clip1_1005_1560)">
<path d="M23.9981 48.0022C28.7449 48.0022 33.385 46.5946 37.3318 43.9575C41.2786 41.3203 44.3547 37.572 46.1712 33.1866C47.9877 28.8012 48.463 23.9756 47.537 19.32C46.6109 14.6645 44.3251 10.3881 40.9687 7.03165C37.6122 3.67519 33.3358 1.38941 28.6803 0.463361C24.0247 -0.462684 19.1991 0.012596 14.8137 1.8291C10.4283 3.6456 6.68 6.72174 4.04285 10.6685C1.40569 14.6153 -0.00188323 19.2555 -0.00188323 24.0022C-0.00950356 27.1561 0.606074 30.2804 1.80949 33.1956C3.0129 36.1109 4.78044 38.7596 7.01056 40.9898C9.24069 43.2199 11.8895 44.9874 14.8047 46.1908C17.72 47.3943 20.8443 48.0098 23.9981 48.0022Z" fill="#49836E"/>
<path d="M30.5994 27.8046C30.5994 24.3048 28.4995 23.1047 24.2996 22.6045C21.2999 22.2048 20.7003 21.4044 20.7003 20.0045C20.7003 18.6045 21.7005 17.7047 23.7001 17.7047C25.4997 17.7047 26.5009 18.3043 27.0001 19.8046C27.0524 19.9493 27.1474 20.0746 27.2726 20.1639C27.3978 20.2533 27.5472 20.3024 27.701 20.3048H29.3008C29.3933 20.307 29.4854 20.2904 29.5713 20.256C29.6572 20.2216 29.7352 20.1701 29.8007 20.1046C29.8661 20.0392 29.9176 19.9612 29.952 19.8752C29.9864 19.7893 30.003 19.6973 30.0008 19.6048V19.5044C29.8072 18.4207 29.2611 17.4313 28.4473 16.69C27.6335 15.9487 26.5977 15.4969 25.5007 15.4049V13.0047C25.5007 12.605 25.2004 12.3047 24.7003 12.2043H23.1999C22.7993 12.2043 22.5 12.5046 22.3996 13.0047V15.3045C19.3998 15.7042 17.4997 17.7047 17.4997 20.2043C17.4997 23.5044 19.4993 24.8049 23.6991 25.305C26.5 25.8042 27.3998 26.4047 27.3998 28.0045C27.3998 29.6043 25.9999 30.7049 24.0998 30.7049C21.4997 30.7049 20.5952 29.6043 20.2996 28.1049C20.1992 27.7052 19.8999 27.5044 19.5997 27.5044H17.9013C17.8088 27.5022 17.7168 27.5188 17.6309 27.5532C17.545 27.5876 17.4669 27.639 17.4015 27.7045C17.336 27.7699 17.2846 27.848 17.2502 27.9339C17.2158 28.0198 17.1992 28.1118 17.2014 28.2044V28.3048C17.6011 30.8044 19.2018 32.605 22.5057 33.1051V35.5044C22.5057 35.905 22.805 36.2044 23.3051 36.3048H24.8054C25.2052 36.3048 25.5054 36.0045 25.6049 35.5044V33.1051C28.6056 32.605 30.6051 30.5041 30.6051 27.8008L30.5994 27.8046Z" fill="white" fill-opacity="0.87"/>
<path d="M18.8984 38.3056C11.0983 35.5057 7.09828 26.8058 9.9948 19.106C11.4942 14.9062 14.7942 11.7056 18.8984 10.2024C19.2981 10.0025 19.498 9.70228 19.498 9.20216V7.80599C19.498 7.40628 19.2981 7.10602 18.8984 7.00562C18.798 7.00562 18.5982 7.00562 18.4978 7.10602C8.99646 10.1058 3.79826 20.2057 6.79802 29.7061C7.6695 32.4502 9.18695 34.9451 11.2229 36.981C13.2588 39.0169 15.7536 40.5343 18.4978 41.4058C18.8984 41.6057 19.2981 41.4058 19.3985 41.0061C19.498 40.9057 19.498 40.8062 19.498 40.6064V39.2064C19.498 38.9062 19.1987 38.5064 18.8984 38.3056ZM29.4985 7.10981C29.0978 6.90995 28.6981 7.10981 28.5986 7.50952C28.4982 7.60992 28.4982 7.70938 28.4982 7.91018V9.30635C28.4982 9.70606 28.7985 10.1058 29.0978 10.3056C36.8979 13.1055 40.8979 21.8055 38.0014 29.5062C36.5011 33.7061 33.2011 36.9057 29.0978 38.4098C28.6981 38.6097 28.4982 38.9099 28.4982 39.4101V40.81C28.4982 41.2097 28.6981 41.51 29.0978 41.6095C29.1982 41.6095 29.3981 41.6094 29.4985 41.51C38.9979 38.5064 44.198 28.4056 41.201 18.9062C40.3316 16.1496 38.8159 13.6408 36.7802 11.5889C34.7446 9.53693 32.248 8.00124 29.4985 7.10981Z" fill="white" fill-opacity="0.87"/>
</g>
</g>
<defs>
<linearGradient id="paint0_linear_1005_1560" x1="69.6786" y1="0.000244141" x2="-11.8058" y2="50.7075" gradientUnits="userSpaceOnUse">
<stop stop-color="#49836E"/>
<stop offset="1" stop-color="#49836E" stop-opacity="0.25"/>
</linearGradient>
<clipPath id="clip0_1005_1560">
<rect width="48" height="48" rx="24" fill="white"/>
</clipPath>
<clipPath id="clip1_1005_1560">
<rect width="48" height="48" fill="white" transform="translate(0 0.000244141)"/>
</clipPath>
</defs>
</svg>
