<svg width="16" height="16" viewBox="0 0 16 16" fill="none" xmlns="http://www.w3.org/2000/svg">
<path d="M1.51538 3.75016C2.04425 3.28329 2.73901 3 3.49993 3H12.4999C13.2608 3 13.9556 3.28329 14.4845 3.75016C14.3615 2.7635 13.5199 2 12.4999 2H3.49993C2.47997 2 1.63834 2.7635 1.51538 3.75016Z" fill="#96BFAE"/>
<path d="M1.51538 5.75016C2.04425 5.28329 2.73901 5 3.49993 5H12.4999C13.2608 5 13.9556 5.28329 14.4845 5.75016C14.3615 4.7635 13.5199 4 12.4999 4H3.49993C2.47997 4 1.63834 4.7635 1.51538 5.75016Z" fill="#96BFAE"/>
<path d="M3.5 6C2.39543 6 1.5 6.89543 1.5 8V12C1.5 13.1046 2.39543 14 3.5 14H12.5C13.6046 14 14.5 13.1046 14.5 12V8C14.5 6.89543 13.6046 6 12.5 6H10C9.72386 6 9.5 6.22386 9.5 6.5C9.5 7.32843 8.82843 8 8 8C7.17157 8 6.5 7.32843 6.5 6.5C6.5 6.22386 6.27614 6 6 6H3.5Z" fill="#96BFAE"/>
</svg>
